<svg width="325" height="121" viewBox="0 0 325 121" fill="none" xmlns="http://www.w3.org/2000/svg">
<path d="M58.549 93.3636V105H56.7933V93.3636H58.549ZM64.2683 99.8182V105H62.5694V96.2727H64.2001V97.6932H64.3081C64.5088 97.2311 64.8232 96.8598 65.2513 96.5795C65.6831 96.2992 66.2266 96.1591 66.8819 96.1591C67.4766 96.1591 67.9975 96.2841 68.4444 96.5341C68.8914 96.7803 69.238 97.1477 69.4842 97.6364C69.7304 98.125 69.8535 98.7292 69.8535 99.4489V105H68.1547V99.6534C68.1547 99.0208 67.9899 98.5265 67.6603 98.1705C67.3308 97.8106 66.8782 97.6307 66.3024 97.6307C65.9085 97.6307 65.5581 97.7159 65.2513 97.8864C64.9482 98.0568 64.7077 98.3068 64.5297 98.6364C64.3554 98.9621 64.2683 99.3561 64.2683 99.8182ZM80.8853 96.2727L77.7206 105H75.9024L72.7319 96.2727H74.5558L76.766 102.989H76.8569L79.0615 96.2727H80.8853ZM87.5464 105.176C86.6866 105.176 85.946 104.992 85.3248 104.625C84.7074 104.254 84.2301 103.733 83.893 103.062C83.5597 102.388 83.393 101.598 83.393 100.693C83.393 99.7992 83.5597 99.0114 83.893 98.3295C84.2301 97.6477 84.6998 97.1155 85.3021 96.733C85.9082 96.3504 86.6165 96.1591 87.4271 96.1591C87.9195 96.1591 88.3968 96.2405 88.8589 96.4034C89.321 96.5663 89.7358 96.822 90.1032 97.1705C90.4707 97.5189 90.7604 97.9716 90.9726 98.5284C91.1847 99.0814 91.2907 99.7538 91.2907 100.545V101.148H84.3532V99.875H89.626C89.626 99.428 89.5351 99.0322 89.3532 98.6875C89.1714 98.339 88.9157 98.0644 88.5862 97.8636C88.2604 97.6629 87.8779 97.5625 87.4385 97.5625C86.9612 97.5625 86.5445 97.6799 86.1885 97.9148C85.8362 98.1458 85.5635 98.4489 85.3703 98.8239C85.1809 99.1951 85.0862 99.5985 85.0862 100.034V101.028C85.0862 101.612 85.1885 102.108 85.393 102.517C85.6014 102.926 85.8911 103.239 86.2623 103.455C86.6335 103.667 87.0673 103.773 87.5635 103.773C87.8854 103.773 88.179 103.727 88.4442 103.636C88.7093 103.542 88.9385 103.402 89.1317 103.216C89.3248 103.03 89.4726 102.801 89.5748 102.528L91.1828 102.818C91.054 103.292 90.8229 103.706 90.4896 104.062C90.1601 104.415 89.7453 104.689 89.2453 104.886C88.7491 105.08 88.1828 105.176 87.5464 105.176ZM101.315 98.4034L99.7757 98.6761C99.7113 98.4792 99.609 98.2917 99.4689 98.1136C99.3325 97.9356 99.1469 97.7898 98.9121 97.6761C98.6772 97.5625 98.3836 97.5057 98.0314 97.5057C97.5503 97.5057 97.1488 97.6136 96.8268 97.8295C96.5049 98.0417 96.3439 98.3163 96.3439 98.6534C96.3439 98.9451 96.4518 99.1799 96.6677 99.358C96.8836 99.536 97.2321 99.6818 97.7132 99.7955L99.0996 100.114C99.9026 100.299 100.501 100.585 100.895 100.972C101.289 101.358 101.486 101.86 101.486 102.477C101.486 103 101.334 103.466 101.031 103.875C100.732 104.28 100.314 104.598 99.7757 104.83C99.2416 105.061 98.6223 105.176 97.9177 105.176C96.9405 105.176 96.1431 104.968 95.5257 104.551C94.9083 104.131 94.5295 103.534 94.3893 102.761L96.0314 102.511C96.1336 102.939 96.3439 103.263 96.6621 103.483C96.9802 103.699 97.395 103.807 97.9064 103.807C98.4632 103.807 98.9083 103.691 99.2416 103.46C99.5749 103.225 99.7416 102.939 99.7416 102.602C99.7416 102.33 99.6393 102.1 99.4348 101.915C99.234 101.729 98.9253 101.589 98.5086 101.494L97.0314 101.17C96.217 100.985 95.6147 100.689 95.2246 100.284C94.8382 99.8788 94.645 99.3655 94.645 98.7443C94.645 98.2292 94.7889 97.7784 95.0768 97.392C95.3647 97.0057 95.7624 96.7045 96.27 96.4886C96.7776 96.2689 97.359 96.1591 98.0143 96.1591C98.9575 96.1591 99.6999 96.3636 100.242 96.7727C100.783 97.178 101.141 97.7216 101.315 98.4034ZM109.028 96.2727V97.6364H104.261V96.2727H109.028ZM105.539 94.1818H107.238V102.438C107.238 102.767 107.287 103.015 107.386 103.182C107.484 103.345 107.611 103.456 107.766 103.517C107.925 103.574 108.098 103.602 108.283 103.602C108.42 103.602 108.539 103.593 108.641 103.574C108.744 103.555 108.823 103.54 108.88 103.528L109.187 104.932C109.088 104.97 108.948 105.008 108.766 105.045C108.584 105.087 108.357 105.11 108.084 105.114C107.638 105.121 107.221 105.042 106.834 104.875C106.448 104.708 106.136 104.451 105.897 104.102C105.658 103.754 105.539 103.316 105.539 102.79V94.1818ZM112.507 105V96.2727H114.206V105H112.507ZM113.365 94.9261C113.069 94.9261 112.816 94.8277 112.604 94.6307C112.395 94.4299 112.291 94.1913 112.291 93.9148C112.291 93.6345 112.395 93.3958 112.604 93.1989C112.816 92.9981 113.069 92.8977 113.365 92.8977C113.66 92.8977 113.912 92.9981 114.121 93.1989C114.333 93.3958 114.439 93.6345 114.439 93.9148C114.439 94.1913 114.333 94.4299 114.121 94.6307C113.912 94.8277 113.66 94.9261 113.365 94.9261ZM118.091 105V96.2727H119.722V97.6932H119.83C120.012 97.2121 120.309 96.8371 120.722 96.5682C121.135 96.2955 121.629 96.1591 122.205 96.1591C122.788 96.1591 123.277 96.2955 123.671 96.5682C124.069 96.8409 124.362 97.2159 124.552 97.6932H124.642C124.851 97.2273 125.182 96.8561 125.637 96.5795C126.091 96.2992 126.633 96.1591 127.262 96.1591C128.053 96.1591 128.699 96.4072 129.199 96.9034C129.703 97.3996 129.955 98.1477 129.955 99.1477V105H128.256V99.3068C128.256 98.7159 128.095 98.2879 127.773 98.0227C127.451 97.7576 127.067 97.625 126.62 97.625C126.067 97.625 125.637 97.7955 125.33 98.1364C125.023 98.4735 124.87 98.9072 124.87 99.4375V105H123.177V99.1989C123.177 98.7254 123.029 98.3447 122.733 98.0568C122.438 97.7689 122.053 97.625 121.58 97.625C121.258 97.625 120.961 97.7102 120.688 97.8807C120.419 98.0473 120.201 98.2803 120.034 98.5795C119.872 98.8788 119.79 99.2254 119.79 99.6193V105H118.091ZM137.593 105.176C136.733 105.176 135.993 104.992 135.372 104.625C134.754 104.254 134.277 103.733 133.94 103.062C133.607 102.388 133.44 101.598 133.44 100.693C133.44 99.7992 133.607 99.0114 133.94 98.3295C134.277 97.6477 134.747 97.1155 135.349 96.733C135.955 96.3504 136.663 96.1591 137.474 96.1591C137.966 96.1591 138.444 96.2405 138.906 96.4034C139.368 96.5663 139.783 96.822 140.15 97.1705C140.518 97.5189 140.807 97.9716 141.019 98.5284C141.232 99.0814 141.338 99.7538 141.338 100.545V101.148H134.4V99.875H139.673C139.673 99.428 139.582 99.0322 139.4 98.6875C139.218 98.339 138.963 98.0644 138.633 97.8636C138.307 97.6629 137.925 97.5625 137.485 97.5625C137.008 97.5625 136.591 97.6799 136.235 97.9148C135.883 98.1458 135.61 98.4489 135.417 98.8239C135.228 99.1951 135.133 99.5985 135.133 100.034V101.028C135.133 101.612 135.235 102.108 135.44 102.517C135.648 102.926 135.938 103.239 136.309 103.455C136.68 103.667 137.114 103.773 137.61 103.773C137.932 103.773 138.226 103.727 138.491 103.636C138.756 103.542 138.985 103.402 139.179 103.216C139.372 103.03 139.519 102.801 139.622 102.528L141.23 102.818C141.101 103.292 140.87 103.706 140.536 104.062C140.207 104.415 139.792 104.689 139.292 104.886C138.796 105.08 138.23 105.176 137.593 105.176ZM146.521 99.8182V105H144.823V96.2727H146.453V97.6932H146.561C146.762 97.2311 147.076 96.8598 147.504 96.5795C147.936 96.2992 148.48 96.1591 149.135 96.1591C149.73 96.1591 150.251 96.2841 150.698 96.5341C151.145 96.7803 151.491 97.1477 151.737 97.6364C151.984 98.125 152.107 98.7292 152.107 99.4489V105H150.408V99.6534C150.408 99.0208 150.243 98.5265 149.913 98.1705C149.584 97.8106 149.131 97.6307 148.556 97.6307C148.162 97.6307 147.811 97.7159 147.504 97.8864C147.201 98.0568 146.961 98.3068 146.783 98.6364C146.609 98.9621 146.521 99.3561 146.521 99.8182ZM160.059 96.2727V97.6364H155.292V96.2727H160.059ZM156.57 94.1818H158.269V102.438C158.269 102.767 158.318 103.015 158.417 103.182C158.515 103.345 158.642 103.456 158.798 103.517C158.957 103.574 159.129 103.602 159.315 103.602C159.451 103.602 159.57 103.593 159.673 103.574C159.775 103.555 159.854 103.54 159.911 103.528L160.218 104.932C160.12 104.97 159.979 105.008 159.798 105.045C159.616 105.087 159.388 105.11 159.116 105.114C158.669 105.121 158.252 105.042 157.866 104.875C157.479 104.708 157.167 104.451 156.928 104.102C156.69 103.754 156.57 103.316 156.57 102.79V94.1818ZM167.121 105.176C166.302 105.176 165.588 104.989 164.979 104.614C164.369 104.239 163.895 103.714 163.558 103.04C163.221 102.366 163.052 101.578 163.052 100.676C163.052 99.7708 163.221 98.9792 163.558 98.3011C163.895 97.6231 164.369 97.0966 164.979 96.7216C165.588 96.3466 166.302 96.1591 167.121 96.1591C167.939 96.1591 168.653 96.3466 169.263 96.7216C169.872 97.0966 170.346 97.6231 170.683 98.3011C171.02 98.9792 171.189 99.7708 171.189 100.676C171.189 101.578 171.02 102.366 170.683 103.04C170.346 103.714 169.872 104.239 169.263 104.614C168.653 104.989 167.939 105.176 167.121 105.176ZM167.126 103.75C167.657 103.75 168.096 103.61 168.444 103.33C168.793 103.049 169.05 102.676 169.217 102.21C169.388 101.744 169.473 101.231 169.473 100.67C169.473 100.114 169.388 99.6023 169.217 99.1364C169.05 98.6667 168.793 98.2898 168.444 98.0057C168.096 97.7216 167.657 97.5795 167.126 97.5795C166.592 97.5795 166.149 97.7216 165.797 98.0057C165.448 98.2898 165.189 98.6667 165.018 99.1364C164.852 99.6023 164.768 100.114 164.768 100.67C164.768 101.231 164.852 101.744 165.018 102.21C165.189 102.676 165.448 103.049 165.797 103.33C166.149 103.61 166.592 103.75 167.126 103.75ZM181.225 98.4034L179.685 98.6761C179.621 98.4792 179.518 98.2917 179.378 98.1136C179.242 97.9356 179.056 97.7898 178.821 97.6761C178.587 97.5625 178.293 97.5057 177.941 97.5057C177.46 97.5057 177.058 97.6136 176.736 97.8295C176.414 98.0417 176.253 98.3163 176.253 98.6534C176.253 98.9451 176.361 99.1799 176.577 99.358C176.793 99.536 177.141 99.6818 177.623 99.7955L179.009 100.114C179.812 100.299 180.41 100.585 180.804 100.972C181.198 101.358 181.395 101.86 181.395 102.477C181.395 103 181.244 103.466 180.941 103.875C180.641 104.28 180.223 104.598 179.685 104.83C179.151 105.061 178.532 105.176 177.827 105.176C176.85 105.176 176.052 104.968 175.435 104.551C174.818 104.131 174.439 103.534 174.299 102.761L175.941 102.511C176.043 102.939 176.253 103.263 176.571 103.483C176.89 103.699 177.304 103.807 177.816 103.807C178.373 103.807 178.818 103.691 179.151 103.46C179.484 103.225 179.651 102.939 179.651 102.602C179.651 102.33 179.549 102.1 179.344 101.915C179.143 101.729 178.835 101.589 178.418 101.494L176.941 101.17C176.126 100.985 175.524 100.689 175.134 100.284C174.748 99.8788 174.554 99.3655 174.554 98.7443C174.554 98.2292 174.698 97.7784 174.986 97.392C175.274 97.0057 175.672 96.7045 176.179 96.4886C176.687 96.2689 177.268 96.1591 177.924 96.1591C178.867 96.1591 179.609 96.3636 180.151 96.7727C180.693 97.178 181.051 97.7216 181.225 98.4034ZM192.59 93.3636V105H190.834V93.3636H192.59ZM198.309 99.8182V105H196.61V96.2727H198.241V97.6932H198.349C198.549 97.2311 198.864 96.8598 199.292 96.5795C199.724 96.2992 200.267 96.1591 200.923 96.1591C201.517 96.1591 202.038 96.2841 202.485 96.5341C202.932 96.7803 203.279 97.1477 203.525 97.6364C203.771 98.125 203.894 98.7292 203.894 99.4489V105H202.195V99.6534C202.195 99.0208 202.031 98.5265 201.701 98.1705C201.371 97.8106 200.919 97.6307 200.343 97.6307C199.949 97.6307 199.599 97.7159 199.292 97.8864C198.989 98.0568 198.748 98.3068 198.57 98.6364C198.396 98.9621 198.309 99.3561 198.309 99.8182ZM211.04 105.17C210.335 105.17 209.706 104.991 209.153 104.631C208.604 104.267 208.172 103.75 207.858 103.08C207.547 102.405 207.392 101.597 207.392 100.653C207.392 99.7102 207.549 98.9034 207.863 98.233C208.182 97.5625 208.617 97.0492 209.17 96.6932C209.723 96.3371 210.35 96.1591 211.051 96.1591C211.593 96.1591 212.028 96.25 212.358 96.4318C212.691 96.6098 212.949 96.8182 213.131 97.0568C213.316 97.2955 213.46 97.5057 213.562 97.6875H213.665V93.3636H215.363V105H213.704V103.642H213.562C213.46 103.828 213.312 104.04 213.119 104.278C212.93 104.517 212.668 104.725 212.335 104.903C212.002 105.081 211.57 105.17 211.04 105.17ZM211.415 103.722C211.903 103.722 212.316 103.593 212.653 103.335C212.994 103.074 213.252 102.712 213.426 102.25C213.604 101.788 213.693 101.25 213.693 100.636C213.693 100.03 213.606 99.5 213.432 99.0455C213.257 98.5909 213.002 98.2367 212.665 97.983C212.327 97.7292 211.911 97.6023 211.415 97.6023C210.903 97.6023 210.477 97.7348 210.136 98C209.795 98.2652 209.538 98.6269 209.363 99.0852C209.193 99.5436 209.108 100.061 209.108 100.636C209.108 101.22 209.195 101.744 209.369 102.21C209.543 102.676 209.801 103.045 210.142 103.318C210.487 103.587 210.911 103.722 211.415 103.722ZM223.15 105.176C222.29 105.176 221.549 104.992 220.928 104.625C220.311 104.254 219.833 103.733 219.496 103.062C219.163 102.388 218.996 101.598 218.996 100.693C218.996 99.7992 219.163 99.0114 219.496 98.3295C219.833 97.6477 220.303 97.1155 220.905 96.733C221.511 96.3504 222.22 96.1591 223.03 96.1591C223.523 96.1591 224 96.2405 224.462 96.4034C224.924 96.5663 225.339 96.822 225.706 97.1705C226.074 97.5189 226.364 97.9716 226.576 98.5284C226.788 99.0814 226.894 99.7538 226.894 100.545V101.148H219.956V99.875H225.229C225.229 99.428 225.138 99.0322 224.956 98.6875C224.775 98.339 224.519 98.0644 224.189 97.8636C223.864 97.6629 223.481 97.5625 223.042 97.5625C222.564 97.5625 222.148 97.6799 221.792 97.9148C221.439 98.1458 221.167 98.4489 220.973 98.8239C220.784 99.1951 220.689 99.5985 220.689 100.034V101.028C220.689 101.612 220.792 102.108 220.996 102.517C221.204 102.926 221.494 103.239 221.865 103.455C222.237 103.667 222.67 103.773 223.167 103.773C223.489 103.773 223.782 103.727 224.047 103.636C224.312 103.542 224.542 103.402 224.735 103.216C224.928 103.03 225.076 102.801 225.178 102.528L226.786 102.818C226.657 103.292 226.426 103.706 226.093 104.062C225.763 104.415 225.348 104.689 224.848 104.886C224.352 105.08 223.786 105.176 223.15 105.176ZM230.379 108.273V96.2727H232.038V97.6875H232.18C232.278 97.5057 232.42 97.2955 232.606 97.0568C232.792 96.8182 233.049 96.6098 233.379 96.4318C233.708 96.25 234.144 96.1591 234.686 96.1591C235.39 96.1591 236.019 96.3371 236.572 96.6932C237.125 97.0492 237.559 97.5625 237.873 98.233C238.191 98.9034 238.35 99.7102 238.35 100.653C238.35 101.597 238.193 102.405 237.879 103.08C237.564 103.75 237.133 104.267 236.583 104.631C236.034 104.991 235.407 105.17 234.703 105.17C234.172 105.17 233.739 105.081 233.402 104.903C233.068 104.725 232.807 104.517 232.617 104.278C232.428 104.04 232.282 103.828 232.18 103.642H232.078V108.273H230.379ZM232.044 100.636C232.044 101.25 232.133 101.788 232.311 102.25C232.489 102.712 232.746 103.074 233.083 103.335C233.42 103.593 233.833 103.722 234.322 103.722C234.83 103.722 235.254 103.587 235.595 103.318C235.936 103.045 236.193 102.676 236.367 102.21C236.545 101.744 236.634 101.22 236.634 100.636C236.634 100.061 236.547 99.5436 236.373 99.0852C236.203 98.6269 235.945 98.2652 235.6 98C235.259 97.7348 234.833 97.6023 234.322 97.6023C233.83 97.6023 233.413 97.7292 233.072 97.983C232.735 98.2367 232.479 98.5909 232.305 99.0455C232.131 99.5 232.044 100.03 232.044 100.636ZM245.615 105.176C244.755 105.176 244.015 104.992 243.394 104.625C242.776 104.254 242.299 103.733 241.962 103.062C241.628 102.388 241.462 101.598 241.462 100.693C241.462 99.7992 241.628 99.0114 241.962 98.3295C242.299 97.6477 242.769 97.1155 243.371 96.733C243.977 96.3504 244.685 96.1591 245.496 96.1591C245.988 96.1591 246.466 96.2405 246.928 96.4034C247.39 96.5663 247.805 96.822 248.172 97.1705C248.539 97.5189 248.829 97.9716 249.041 98.5284C249.253 99.0814 249.359 99.7538 249.359 100.545V101.148H242.422V99.875H247.695C247.695 99.428 247.604 99.0322 247.422 98.6875C247.24 98.339 246.984 98.0644 246.655 97.8636C246.329 97.6629 245.947 97.5625 245.507 97.5625C245.03 97.5625 244.613 97.6799 244.257 97.9148C243.905 98.1458 243.632 98.4489 243.439 98.8239C243.25 99.1951 243.155 99.5985 243.155 100.034V101.028C243.155 101.612 243.257 102.108 243.462 102.517C243.67 102.926 243.96 103.239 244.331 103.455C244.702 103.667 245.136 103.773 245.632 103.773C245.954 103.773 246.248 103.727 246.513 103.636C246.778 103.542 247.007 103.402 247.2 103.216C247.394 103.03 247.541 102.801 247.644 102.528L249.252 102.818C249.123 103.292 248.892 103.706 248.558 104.062C248.229 104.415 247.814 104.689 247.314 104.886C246.818 105.08 246.252 105.176 245.615 105.176ZM254.543 99.8182V105H252.844V96.2727H254.475V97.6932H254.583C254.784 97.2311 255.098 96.8598 255.526 96.5795C255.958 96.2992 256.502 96.1591 257.157 96.1591C257.752 96.1591 258.272 96.2841 258.719 96.5341C259.166 96.7803 259.513 97.1477 259.759 97.6364C260.005 98.125 260.129 98.7292 260.129 99.4489V105H258.43V99.6534C258.43 99.0208 258.265 98.5265 257.935 98.1705C257.606 97.8106 257.153 97.6307 256.577 97.6307C256.183 97.6307 255.833 97.7159 255.526 97.8864C255.223 98.0568 254.983 98.3068 254.805 98.6364C254.63 98.9621 254.543 99.3561 254.543 99.8182ZM267.274 105.17C266.569 105.17 265.941 104.991 265.388 104.631C264.838 104.267 264.407 103.75 264.092 103.08C263.782 102.405 263.626 101.597 263.626 100.653C263.626 99.7102 263.783 98.9034 264.098 98.233C264.416 97.5625 264.852 97.0492 265.405 96.6932C265.958 96.3371 266.585 96.1591 267.285 96.1591C267.827 96.1591 268.263 96.25 268.592 96.4318C268.926 96.6098 269.183 96.8182 269.365 97.0568C269.551 97.2955 269.694 97.5057 269.797 97.6875H269.899V93.3636H271.598V105H269.939V103.642H269.797C269.694 103.828 269.547 104.04 269.354 104.278C269.164 104.517 268.903 104.725 268.569 104.903C268.236 105.081 267.804 105.17 267.274 105.17ZM267.649 103.722C268.138 103.722 268.551 103.593 268.888 103.335C269.229 103.074 269.486 102.712 269.66 102.25C269.838 101.788 269.927 101.25 269.927 100.636C269.927 100.03 269.84 99.5 269.666 99.0455C269.492 98.5909 269.236 98.2367 268.899 97.983C268.562 97.7292 268.145 97.6023 267.649 97.6023C267.138 97.6023 266.711 97.7348 266.371 98C266.03 98.2652 265.772 98.6269 265.598 99.0852C265.427 99.5436 265.342 100.061 265.342 100.636C265.342 101.22 265.429 101.744 265.604 102.21C265.778 102.676 266.035 103.045 266.376 103.318C266.721 103.587 267.145 103.722 267.649 103.722ZM279.384 105.176C278.524 105.176 277.784 104.992 277.162 104.625C276.545 104.254 276.068 103.733 275.731 103.062C275.397 102.388 275.231 101.598 275.231 100.693C275.231 99.7992 275.397 99.0114 275.731 98.3295C276.068 97.6477 276.537 97.1155 277.14 96.733C277.746 96.3504 278.454 96.1591 279.265 96.1591C279.757 96.1591 280.234 96.2405 280.696 96.4034C281.159 96.5663 281.573 96.822 281.941 97.1705C282.308 97.5189 282.598 97.9716 282.81 98.5284C283.022 99.0814 283.128 99.7538 283.128 100.545V101.148H276.191V99.875H281.463C281.463 99.428 281.373 99.0322 281.191 98.6875C281.009 98.339 280.753 98.0644 280.424 97.8636C280.098 97.6629 279.715 97.5625 279.276 97.5625C278.799 97.5625 278.382 97.6799 278.026 97.9148C277.674 98.1458 277.401 98.4489 277.208 98.8239C277.018 99.1951 276.924 99.5985 276.924 100.034V101.028C276.924 101.612 277.026 102.108 277.231 102.517C277.439 102.926 277.729 103.239 278.1 103.455C278.471 103.667 278.905 103.773 279.401 103.773C279.723 103.773 280.016 103.727 280.282 103.636C280.547 103.542 280.776 103.402 280.969 103.216C281.162 103.03 281.31 102.801 281.412 102.528L283.02 102.818C282.891 103.292 282.66 103.706 282.327 104.062C281.998 104.415 281.583 104.689 281.083 104.886C280.587 105.08 280.02 105.176 279.384 105.176ZM288.312 99.8182V105H286.613V96.2727H288.244V97.6932H288.352C288.553 97.2311 288.867 96.8598 289.295 96.5795C289.727 96.2992 290.27 96.1591 290.926 96.1591C291.52 96.1591 292.041 96.2841 292.488 96.5341C292.935 96.7803 293.282 97.1477 293.528 97.6364C293.774 98.125 293.897 98.7292 293.897 99.4489V105H292.198V99.6534C292.198 99.0208 292.034 98.5265 291.704 98.1705C291.375 97.8106 290.922 97.6307 290.346 97.6307C289.952 97.6307 289.602 97.7159 289.295 97.8864C288.992 98.0568 288.751 98.3068 288.573 98.6364C288.399 98.9621 288.312 99.3561 288.312 99.8182ZM301.85 96.2727V97.6364H297.083V96.2727H301.85ZM298.361 94.1818H300.06V102.438C300.06 102.767 300.109 103.015 300.208 103.182C300.306 103.345 300.433 103.456 300.588 103.517C300.747 103.574 300.92 103.602 301.105 103.602C301.242 103.602 301.361 103.593 301.463 103.574C301.565 103.555 301.645 103.54 301.702 103.528L302.009 104.932C301.91 104.97 301.77 105.008 301.588 105.045C301.406 105.087 301.179 105.11 300.906 105.114C300.459 105.121 300.043 105.042 299.656 104.875C299.27 104.708 298.958 104.451 298.719 104.102C298.48 103.754 298.361 103.316 298.361 102.79V94.1818ZM308.996 105.176C308.137 105.176 307.396 104.992 306.775 104.625C306.157 104.254 305.68 103.733 305.343 103.062C305.01 102.388 304.843 101.598 304.843 100.693C304.843 99.7992 305.01 99.0114 305.343 98.3295C305.68 97.6477 306.15 97.1155 306.752 96.733C307.358 96.3504 308.067 96.1591 308.877 96.1591C309.37 96.1591 309.847 96.2405 310.309 96.4034C310.771 96.5663 311.186 96.822 311.553 97.1705C311.921 97.5189 312.21 97.9716 312.423 98.5284C312.635 99.0814 312.741 99.7538 312.741 100.545V101.148H305.803V99.875H311.076C311.076 99.428 310.985 99.0322 310.803 98.6875C310.621 98.339 310.366 98.0644 310.036 97.8636C309.71 97.6629 309.328 97.5625 308.888 97.5625C308.411 97.5625 307.995 97.6799 307.638 97.9148C307.286 98.1458 307.013 98.4489 306.82 98.8239C306.631 99.1951 306.536 99.5985 306.536 100.034V101.028C306.536 101.612 306.638 102.108 306.843 102.517C307.051 102.926 307.341 103.239 307.712 103.455C308.084 103.667 308.517 103.773 309.013 103.773C309.335 103.773 309.629 103.727 309.894 103.636C310.159 103.542 310.388 103.402 310.582 103.216C310.775 103.03 310.923 102.801 311.025 102.528L312.633 102.818C312.504 103.292 312.273 103.706 311.94 104.062C311.61 104.415 311.195 104.689 310.695 104.886C310.199 105.08 309.633 105.176 308.996 105.176ZM322.765 98.4034L321.226 98.6761C321.161 98.4792 321.059 98.2917 320.919 98.1136C320.783 97.9356 320.597 97.7898 320.362 97.6761C320.127 97.5625 319.834 97.5057 319.481 97.5057C319 97.5057 318.599 97.6136 318.277 97.8295C317.955 98.0417 317.794 98.3163 317.794 98.6534C317.794 98.9451 317.902 99.1799 318.118 99.358C318.334 99.536 318.682 99.6818 319.163 99.7955L320.55 100.114C321.353 100.299 321.951 100.585 322.345 100.972C322.739 101.358 322.936 101.86 322.936 102.477C322.936 103 322.784 103.466 322.481 103.875C322.182 104.28 321.764 104.598 321.226 104.83C320.692 105.061 320.072 105.176 319.368 105.176C318.39 105.176 317.593 104.968 316.976 104.551C316.358 104.131 315.979 103.534 315.839 102.761L317.481 102.511C317.584 102.939 317.794 103.263 318.112 103.483C318.43 103.699 318.845 103.807 319.356 103.807C319.913 103.807 320.358 103.691 320.692 103.46C321.025 103.225 321.192 102.939 321.192 102.602C321.192 102.33 321.089 102.1 320.885 101.915C320.684 101.729 320.375 101.589 319.959 101.494L318.481 101.17C317.667 100.985 317.065 100.689 316.675 100.284C316.288 99.8788 316.095 99.3655 316.095 98.7443C316.095 98.2292 316.239 97.7784 316.527 97.392C316.815 97.0057 317.212 96.7045 317.72 96.4886C318.228 96.2689 318.809 96.1591 319.464 96.1591C320.408 96.1591 321.15 96.3636 321.692 96.7727C322.233 97.178 322.591 97.7216 322.765 98.4034Z" fill="white"/>
<path d="M27.5184 27.4999C44.0184 27.5 51.5184 40.9998 51.5184 40.9998L40.5185 48.9998C40.5185 48.9998 36.5149 41.5 28.0184 41.5C23.3894 41.5 20.3578 42.8439 17.5184 46.4998C15.246 49.4258 14.5184 51.795 14.5184 55.4998C14.5184 59.2046 15.1862 61.6211 17.5184 64.4998C20.3774 68.0287 23.4768 69.4998 28.0184 69.4998C35.5149 69.4998 40.5185 63 40.5185 63L51.5184 70C51.5184 70 49.541 74.3447 44.5149 78C39.0149 82 31.6882 83.9727 26.0151 83.5C8.01165 82 -0.405188 69.4288 0.0149725 54.5C0.43062 39.7316 12.7442 27.4998 27.5184 27.4999Z" fill="white"/>
<path d="M57.5149 0H69.0149C69.0149 0 70.4629 0.323358 71.0149 1C71.6443 1.77149 71.5149 3.5 71.5149 3.5V83H57.5149V0Z" fill="white"/>
<path d="M81.5203 29H93.0112C93.0112 29 94.4581 29.2104 95.0097 29.6506C95.6386 30.1525 95.5093 31.2771 95.5093 31.2771V83H81.5203V29Z" fill="white"/>
<path d="M104.515 29H116.006C116.006 29 117.453 29.2103 118.004 29.6506C118.633 30.1525 118.504 31.2771 118.504 31.2771C118.504 31.2771 121.776 29.6393 124.015 29C126.484 28.2949 127.947 28.0177 130.515 28C134.73 27.9708 137.148 28.8216 141.015 30.5C144.642 32.0742 149.515 36 149.515 36C149.515 36 153.424 32.0913 156.515 30.5C161.111 28.1335 164.345 27.9706 169.515 28C172.663 28.0178 176.015 28.8136 178.015 29.5C180.015 30.1864 183.956 32.5534 187.015 36C189.461 38.7553 190.55 40.6193 192.015 44C194.515 49.7711 194.515 54 194.515 54V82H180.515V54C180.515 54 180.515 49.5273 176.515 45.5C174.053 43.0217 172.004 41.6586 168.515 41.5C164.673 41.3253 162.071 42.6259 159.515 45.5C156.515 48.8734 156.515 54 156.515 54V82H142.515V54C142.515 54 142.515 49.2078 139.015 45.5C136.497 42.8321 134.184 41.5 130.515 41.5C126.846 41.5 124.613 42.9099 122.015 45.5C118.504 49 118.504 54 118.504 54V83H104.515V29Z" fill="white"/>
<path d="M95.5149 8.00001V18.0044H81.5149V2.0044H90.5149C90.5149 2.0044 93.328 1.81315 94.5149 3.00001C95.7018 4.18687 95.5149 8.00001 95.5149 8.00001Z" fill="#7EC4BE"/>
<path d="M282.503 35.8772V44H267.515V31.0092H277.15C277.15 31.0092 280.162 30.8539 281.433 31.8176C282.704 32.7812 282.503 35.8772 282.503 35.8772Z" fill="#7EC4BE"/>
<path d="M298.491 54.5V62.9999H267.515V50.0092L293.015 50.0092C293.015 50.0092 296.515 49.9999 297.515 51C298.515 52.0002 298.491 54.5 298.491 54.5Z" fill="#7EC4BE"/>
<path d="M321.474 73.5V81.9999H267.515V69.0092H316.015C316.015 69.0092 319.556 68.9999 320.515 70C321.474 71 321.474 73.5 321.474 73.5Z" fill="#7EC4BE"/>
<path d="M202.515 0H214.015C214.015 0 215.463 0.323358 216.015 1C216.644 1.77149 216.515 3.5 216.515 3.5V31.5C216.515 31.5 224.52 27.6952 230.015 27.5C236.262 27.2781 240.223 28.1722 245.515 31.5C249.841 34.2205 251.999 36.5516 254.515 41C257.01 45.4125 257.723 48.4391 258.015 53.5C258.383 59.8855 257.582 63.8869 254.515 69.5C251.996 74.1107 249.976 76.725 245.515 79.5C240.246 82.7775 236.215 83.2538 230.015 83C224.762 82.785 217.015 79.5 217.015 79.5L216.515 56C216.515 56 217.004 58.9 218.015 61.5C218.679 63.207 219.685 64.6702 220.515 65.5C223.515 68.5 226.935 69.8702 230.515 70C234.718 70.1524 238.679 68.3359 241.015 66C245.015 62 245.819 58.2441 245.015 52C244.809 50.3989 243.515 47.3428 241.015 45C238.515 42.6572 234.72 40.9242 230.515 41C226.49 41.0725 222.938 43.0876 221.015 45C219.015 46.9885 217.739 49.0307 217.015 52C216.642 53.5294 216.515 56 216.515 56L217.015 79.5L216.515 83H202.515V0Z" fill="white"/>
</svg>
