<svg width="71" height="17" viewBox="0 0 71 17" fill="none" xmlns="http://www.w3.org/2000/svg">
<path d="M5.742 16.126C4.62733 16.126 3.63733 15.884 2.772 15.4C1.90666 14.9013 1.22466 14.2266 0.726 13.376C0.242 12.5106 0 11.5206 0 10.406C0 9.27667 0.242 8.28667 0.726 7.436C1.22466 6.57067 1.90666 5.88867 2.772 5.39C3.63733 4.89133 4.62733 4.642 5.742 4.642C7.15 4.642 8.338 5.016 9.306 5.764C10.274 6.49733 10.89 7.50933 11.154 8.8H8.00801C7.87601 8.30133 7.60467 7.91267 7.19401 7.634C6.78334 7.34067 6.29201 7.194 5.72001 7.194C5.20667 7.194 4.74466 7.31867 4.334 7.568C3.938 7.81733 3.62267 8.184 3.38801 8.668C3.15334 9.152 3.03601 9.724 3.03601 10.384C3.03601 10.8826 3.102 11.33 3.234 11.726C3.38066 12.122 3.57134 12.4593 3.80601 12.738C4.05534 13.0166 4.34133 13.2293 4.664 13.376C4.98666 13.5226 5.33867 13.596 5.72001 13.596C6.10134 13.596 6.446 13.5373 6.754 13.42C7.062 13.288 7.326 13.1046 7.546 12.87C7.766 12.6206 7.92001 12.32 8.00801 11.968H11.154C10.89 13.2293 10.274 14.2413 9.306 15.004C8.338 15.752 7.15 16.126 5.742 16.126ZM13.1723 15.862V0.0219997H16.1423V15.862H13.1723ZM18.5826 15.862V4.906H21.5526V15.862H18.5826ZM20.0786 3.344C19.5359 3.344 19.0886 3.19 18.7366 2.882C18.3992 2.55933 18.2306 2.156 18.2306 1.672C18.2306 1.188 18.3992 0.792 18.7366 0.483999C19.0886 0.161333 19.5359 0 20.0786 0C20.6066 0 21.0392 0.161333 21.3766 0.483999C21.7286 0.792 21.9046 1.188 21.9046 1.672C21.9046 2.156 21.7286 2.55933 21.3766 2.882C21.0392 3.19 20.6066 3.344 20.0786 3.344ZM23.9887 15.862V4.906H26.6067L26.8487 6.38C27.2007 5.852 27.6627 5.434 28.2347 5.126C28.8214 4.80333 29.496 4.642 30.2587 4.642C30.816 4.642 31.3147 4.71533 31.7547 4.862C32.2094 5.00867 32.6054 5.22867 32.9427 5.522C33.2947 5.80067 33.5807 6.14533 33.8007 6.556C34.226 5.96933 34.7687 5.50733 35.4287 5.17C36.1034 4.818 36.8294 4.642 37.6067 4.642C38.5747 4.642 39.3814 4.84 40.0267 5.236C40.6867 5.61733 41.1854 6.182 41.5227 6.93C41.86 7.678 42.0287 8.59467 42.0287 9.68V15.862H39.0807V9.966C39.0807 9.05667 38.9047 8.36 38.5527 7.876C38.2007 7.392 37.6654 7.15 36.9467 7.15C36.448 7.15 36.0154 7.27467 35.6487 7.524C35.282 7.75867 34.996 8.10333 34.7907 8.558C34.6 8.998 34.5047 9.54067 34.5047 10.186V15.862H31.5347V9.966C31.5347 9.05667 31.3587 8.36 31.0067 7.876C30.6547 7.392 30.1047 7.15 29.3567 7.15C28.8874 7.15 28.4694 7.27467 28.1027 7.524C27.7507 7.75867 27.472 8.10333 27.2667 8.558C27.0614 8.998 26.9587 9.54067 26.9587 10.186V15.862H23.9887ZM50.7986 16.126C50.2559 16.126 49.7573 16.0526 49.3026 15.906C48.8626 15.774 48.4666 15.5833 48.1146 15.334C47.7626 15.07 47.4619 14.7693 47.2126 14.432L46.8826 15.862H44.2426V0.0219997H47.2126V6.446C47.5646 5.962 48.0266 5.544 48.5986 5.192C49.1706 4.82533 49.9039 4.642 50.7986 4.642C51.8253 4.642 52.7346 4.89867 53.5266 5.412C54.3333 5.91067 54.9713 6.59267 55.4406 7.458C55.9099 8.32333 56.1446 9.306 56.1446 10.406C56.1446 11.506 55.9099 12.4886 55.4406 13.354C54.9713 14.2193 54.3333 14.9013 53.5266 15.4C52.7346 15.884 51.8253 16.126 50.7986 16.126ZM50.1386 13.53C50.7106 13.53 51.2239 13.398 51.6786 13.134C52.1333 12.87 52.4853 12.5033 52.7346 12.034C52.9986 11.5646 53.1306 11.022 53.1306 10.406C53.1306 9.79 52.9986 9.24733 52.7346 8.778C52.4853 8.294 52.1333 7.92 51.6786 7.656C51.2239 7.37733 50.7106 7.238 50.1386 7.238C49.5519 7.238 49.0313 7.37733 48.5766 7.656C48.1219 7.92 47.7626 8.28667 47.4986 8.756C47.2493 9.22533 47.1246 9.768 47.1246 10.384C47.1246 11 47.2493 11.55 47.4986 12.034C47.7626 12.5033 48.1219 12.87 48.5766 13.134C49.0313 13.398 49.5519 13.53 50.1386 13.53Z" fill="white"/>
<path d="M61.9219 3.86206H58.9219V6.86206H61.9219V3.86206Z" fill="#7EC4BE"/>
<path d="M65.9219 7.86206H58.9219V10.8621H65.9219V7.86206Z" fill="#7EC4BE"/>
<path d="M70.9219 11.8621H58.9219V14.8621H70.9219V11.8621Z" fill="#7EC4BE"/>
</svg>
